<svg width="205" height="172" viewBox="0 0 205 172" fill="none" xmlns="http://www.w3.org/2000/svg">
<path fill-rule="evenodd" clip-rule="evenodd" d="M-5 -11H205V172H-5V-11ZM-4.67188 -10.6732H20.9219V14.8161H-4.67188V-10.6732ZM21.5781 -10.6732H47.1719V14.8161H21.5781V-10.6732ZM73.4219 -10.6732H47.8281V14.8161H73.4219V-10.6732ZM74.0781 -10.6732H99.6719V14.8161H74.0781V-10.6732ZM125.922 -10.6732H100.328V14.8161H125.922V-10.6732ZM126.578 -10.6732H152.172V14.8161H126.578V-10.6732ZM178.422 -10.6732H152.828V14.8161H178.422V-10.6732ZM179.078 -10.6732H204.672V14.8161H179.078V-10.6732ZM20.9219 15.4696H-4.67188V40.9589H20.9219V15.4696ZM21.5781 15.4696H47.1719V40.9589H21.5781V15.4696ZM73.4219 15.4696H47.8281V40.9589H73.4219V15.4696ZM74.0781 15.4696H99.6719V40.9589H74.0781V15.4696ZM125.922 15.4696H100.328V40.9589H125.922V15.4696ZM126.578 15.4696H152.172V40.9589H126.578V15.4696ZM178.422 15.4696H152.828V40.9589H178.422V15.4696ZM179.078 15.4696H204.672V40.9589H179.078V15.4696ZM20.9219 41.6125H-4.67188V67.1018H20.9219V41.6125ZM21.5781 41.6125H47.1719V67.1018H21.5781V41.6125ZM73.4219 41.6125H47.8281V67.1018H73.4219V41.6125ZM74.0781 41.6125H99.6719V67.1018H74.0781V41.6125ZM125.922 41.6125H100.328V67.1018H125.922V41.6125ZM126.578 41.6125H152.172V67.1018H126.578V41.6125ZM178.422 41.6125H152.828V67.1018H178.422V41.6125ZM179.078 41.6125H204.672V67.1018H179.078V41.6125ZM20.9219 67.7554H-4.67188V93.2446H20.9219V67.7554ZM21.5781 67.7554H47.1719V93.2446H21.5781V67.7554ZM73.4219 67.7554H47.8281V93.2446H73.4219V67.7554ZM74.0781 67.7554H99.6719V93.2446H74.0781V67.7554ZM125.922 67.7554H100.328V93.2446H125.922V67.7554ZM126.578 67.7554H152.172V93.2446H126.578V67.7554ZM178.422 67.7554H152.828V93.2446H178.422V67.7554ZM179.078 67.7554H204.672V93.2446H179.078V67.7554ZM20.9219 93.8982H-4.67188V119.387H20.9219V93.8982ZM21.5781 93.8982H47.1719V119.387H21.5781V93.8982ZM73.4219 93.8982H47.8281V119.387H73.4219V93.8982ZM74.0781 93.8982H99.6719V119.387H74.0781V93.8982ZM125.922 93.8982H100.328V119.387H125.922V93.8982ZM126.578 93.8982H152.172V119.387H126.578V93.8982ZM178.422 93.8982H152.828V119.387H178.422V93.8982ZM179.078 93.8982H204.672V119.387H179.078V93.8982ZM20.9219 120.041H-4.67188V145.53H20.9219V120.041ZM21.5781 120.041H47.1719V145.53H21.5781V120.041ZM73.4219 120.041H47.8281V145.53H73.4219V120.041ZM74.0781 120.041H99.6719V145.53H74.0781V120.041ZM125.922 120.041H100.328V145.53H125.922V120.041ZM126.578 120.041H152.172V145.53H126.578V120.041ZM178.422 120.041H152.828V145.53H178.422V120.041ZM179.078 120.041H204.672V145.53H179.078V120.041ZM20.9219 146.184H-4.67188V171.673H20.9219V146.184ZM21.5781 146.184H47.1719V171.673H21.5781V146.184ZM73.4219 146.184H47.8281V171.673H73.4219V146.184ZM74.0781 146.184H99.6719V171.673H74.0781V146.184ZM125.922 146.184H100.328V171.673H125.922V146.184ZM126.578 146.184H152.172V171.673H126.578V146.184ZM178.422 146.184H152.828V171.673H178.422V146.184ZM179.078 146.184H204.672V171.673H179.078V146.184Z" fill="url(#paint0_linear_8_1666)"/>
<defs>
<linearGradient id="paint0_linear_8_1666" x1="100" y1="-107" x2="100" y2="172" gradientUnits="userSpaceOnUse">
<stop stop-color="white"/>
<stop offset="0.621195" stop-color="white" stop-opacity="0"/>
</linearGradient>
</defs>
</svg>
