<svg width="54" height="17" viewBox="0 0 54 17" fill="none" xmlns="http://www.w3.org/2000/svg">
<path d="M10.14 16H7.44L7.42 13.52C7.42 12.76 7.16667 12.1267 6.66 11.62C6.15333 11.1133 5.52667 10.86 4.78 10.86H3.08V16H0.38V0.159999H4.8C6.30667 0.159999 7.57333 0.679999 8.6 1.72C9.62667 2.74667 10.14 4.01333 10.14 5.52C10.14 7.12 9.54 8.45333 8.34 9.52C9.54 10.5867 10.14 11.92 10.14 13.52V16ZM7.44 5.52C7.45333 4.77333 7.2 4.14667 6.68 3.64C6.17333 3.12 5.54667 2.86 4.8 2.86H3.08V8.16H4.78C5.52667 8.16 6.15333 7.90667 6.66 7.4C7.16667 6.89333 7.42667 6.26667 7.44 5.52ZM22.2128 10.94C22.2128 11.2067 22.1928 11.4733 22.1528 11.74H14.3328C14.5061 12.3 14.8261 12.7533 15.2928 13.1C15.7595 13.4333 16.2861 13.6 16.8728 13.6C17.6861 13.6 18.3595 13.2867 18.8928 12.66L20.5328 14.84C19.5061 15.8133 18.2861 16.3 16.8728 16.3C15.3661 16.3 14.0928 15.7867 13.0528 14.76C12.0261 13.72 11.5128 12.4467 11.5128 10.94C11.5128 9.44667 12.0328 8.18667 13.0728 7.16C14.1128 6.12 15.3795 5.6 16.8728 5.6C18.3661 5.6 19.6261 6.12 20.6528 7.16C21.6928 8.18667 22.2128 9.44667 22.2128 10.94ZM19.1928 9.72C18.6995 8.77333 17.9261 8.3 16.8728 8.3C15.8061 8.3 15.0261 8.77333 14.5328 9.72H19.1928ZM36.5022 16H33.6422L33.0622 14.44C31.9955 15.6933 30.6355 16.32 28.9822 16.32C27.4889 16.32 26.2222 15.8 25.1822 14.76C24.1555 13.72 23.6422 12.46 23.6422 10.98C23.6422 9.84667 23.9622 8.82667 24.6022 7.92C25.2422 7 26.0955 6.34667 27.1622 5.96C27.7889 5.73333 28.4022 5.62 29.0022 5.62C30.1355 5.62 31.1555 5.94667 32.0622 6.6C32.9822 7.24 33.6355 8.09333 34.0222 9.16L36.5022 16ZM31.6422 10.98C31.6422 10.0467 31.2622 9.32 30.5022 8.8C30.0622 8.49333 29.5555 8.34 28.9822 8.34C28.0489 8.34 27.3289 8.71333 26.8222 9.46C26.5022 9.92667 26.3422 10.4333 26.3422 10.98C26.3422 11.9 26.7222 12.62 27.4822 13.14C27.9489 13.46 28.4489 13.62 28.9822 13.62C29.7155 13.62 30.3422 13.3667 30.8622 12.86C31.3822 12.34 31.6422 11.7133 31.6422 10.98ZM53.6502 16C52.1568 16 50.8902 15.4867 49.8502 14.46C48.8102 13.42 48.2902 12.1533 48.2902 10.66V0.159999H50.9902V5.62H53.6502V7.92H50.9902V10.66C50.9902 11.3933 51.2502 12.02 51.7702 12.54C52.2902 13.0467 52.9168 13.3 53.6502 13.3V16Z" fill="#0A142F"/>
<path d="M46.9595 14.8C45.9195 15.8 44.6862 16.3 43.2595 16.3C41.7529 16.3 40.4795 15.7867 39.4395 14.76C38.4129 13.72 37.8995 12.4467 37.8995 10.94C37.8995 9.44667 38.4195 8.18667 39.4595 7.16C40.4995 6.12 41.7662 5.6 43.2595 5.6C44.6195 5.6 45.8062 6.06 46.8195 6.98L45.1995 9.16C44.6795 8.58667 44.0329 8.3 43.2595 8.3C42.5262 8.3 41.8995 8.56 41.3795 9.08C40.8595 9.58667 40.5995 10.2067 40.5995 10.94C40.5995 11.6733 40.8595 12.3 41.3795 12.82C41.8995 13.34 42.5262 13.6 43.2595 13.6C44.0595 13.6 44.7195 13.2933 45.2395 12.68L46.9595 14.8Z" fill="#FFC93E"/>
</svg>
